<svg version="1.2" baseProfile="tiny-ps" xmlns="http://www.w3.org/2000/svg" viewBox="0 0 64 64" width="64" height="64"><title>New Project</title><style>tspan { white-space:pre }</style><path id="CLICK ME!" fill="#ffffff" aria-label="CLICK ME!"  d="M8.75 33.5L7.61 33.5Q7.51 33.01 7.25 32.63Q7 32.26 6.64 32Q6.29 31.75 5.85 31.62Q5.42 31.49 4.95 31.49Q4.09 31.49 3.39 31.92Q2.7 32.36 2.29 33.2Q1.88 34.04 1.88 35.27Q1.88 36.5 2.29 37.35Q2.7 38.19 3.39 38.62Q4.09 39.06 4.95 39.06Q5.42 39.06 5.85 38.93Q6.29 38.8 6.64 38.55Q7 38.29 7.25 37.91Q7.51 37.53 7.61 37.05L8.75 37.05Q8.62 37.77 8.28 38.34Q7.94 38.92 7.43 39.32Q6.92 39.71 6.29 39.92Q5.66 40.13 4.95 40.13Q3.74 40.13 2.8 39.54Q1.86 38.95 1.32 37.86Q0.78 36.77 0.78 35.27Q0.78 33.78 1.32 32.69Q1.86 31.6 2.8 31.01Q3.74 30.42 4.95 30.42Q5.66 30.42 6.29 30.62Q6.92 30.83 7.43 31.23Q7.94 31.63 8.28 32.2Q8.62 32.77 8.75 33.5ZM16.14 40L10.6 40L10.6 30.55L11.74 30.55L11.74 38.98L16.14 38.98L16.14 40ZM17.91 30.55L19.06 30.55L19.06 40L17.91 40L17.91 30.55ZM28.95 33.5L27.81 33.5Q27.71 33.01 27.45 32.63Q27.2 32.26 26.84 32Q26.49 31.75 26.06 31.62Q25.62 31.49 25.15 31.49Q24.29 31.49 23.59 31.92Q22.9 32.36 22.49 33.2Q22.09 34.04 22.09 35.27Q22.09 36.5 22.49 37.35Q22.9 38.19 23.59 38.62Q24.29 39.06 25.15 39.06Q25.62 39.06 26.06 38.93Q26.49 38.8 26.84 38.55Q27.2 38.29 27.45 37.91Q27.71 37.53 27.81 37.05L28.95 37.05Q28.83 37.77 28.48 38.34Q28.14 38.92 27.63 39.32Q27.13 39.71 26.49 39.92Q25.87 40.13 25.15 40.13Q23.94 40.13 23 39.54Q22.06 38.95 21.52 37.86Q20.98 36.77 20.98 35.27Q20.98 33.78 21.52 32.69Q22.06 31.6 23 31.01Q23.94 30.42 25.15 30.42Q25.87 30.42 26.49 30.62Q27.13 30.83 27.63 31.23Q28.14 31.63 28.48 32.2Q28.83 32.77 28.95 33.5ZM31.95 40L30.8 40L30.8 30.55L31.95 30.55L31.95 35.24L32.06 35.24L36.3 30.55L37.8 30.55L33.83 34.81L37.8 40L36.41 40L33.13 35.61L31.95 36.93L31.95 40ZM42.93 40L42.93 30.55L44.3 30.55L47.51 38.39L47.62 38.39L50.84 30.55L52.2 30.55L52.2 40L51.13 40L51.13 32.82L51.04 32.82L48.09 40L47.05 40L44.1 32.82L44 32.82L44 40L42.93 40ZM60.27 40L54.49 40L54.49 30.55L60.2 30.55L60.2 31.56L55.64 31.56L55.64 34.76L59.9 34.76L59.9 35.77L55.64 35.77L55.64 38.98L60.27 38.98L60.27 40ZM62.3 30.55L63.56 30.55L63.47 37.34L62.4 37.34L62.3 30.55ZM62.93 40.07Q62.59 40.07 62.35 39.83Q62.1 39.58 62.1 39.24Q62.1 38.9 62.35 38.66Q62.59 38.41 62.93 38.41Q63.27 38.41 63.52 38.66Q63.76 38.9 63.76 39.24Q63.76 39.47 63.65 39.66Q63.54 39.85 63.35 39.96Q63.16 40.07 62.93 40.07Z" /></svg>