<svg version="1.2" baseProfile="tiny-ps" xmlns="http://www.w3.org/2000/svg" viewBox="0 0 400 400" width="400" height="400">
	<title>Logo-svg</title>
	<style>
		tspan { white-space:pre }
		.shp0 { fill: none;stroke: #000e8d;stroke-width: 15 } 
		.shp1 { fill: #000e8d } 
	</style>
	<path id="Shape 1" class="shp0" d="M0 0L400 0L400 400L0 400L0 0Z" />
	<path id="URBAN SPORTS CLUB" fill-rule="evenodd" class="shp1" d="M83.79 116.23C79.05 120.37 72.87 122.44 65.25 122.44C57.63 122.44 51.45 120.37 46.71 116.23C41.97 112.09 39.6 106.66 39.6 99.94L39.6 58L57.6 58L57.6 97.96C57.6 102.64 60.15 104.98 65.25 104.98C70.35 104.98 72.9 102.64 72.9 97.96L72.9 58L90.9 58L90.9 99.94C90.9 106.66 88.53 112.09 83.79 116.23ZM150.75 120.91L131.49 120.91L121.5 101.11L117 101.11L117 120.91L99 120.91L99 57.91L124.2 57.91C131.1 57.91 136.8 59.95 141.3 64.03C145.8 68.05 148.05 73.39 148.05 80.05C148.05 83.77 147.18 87.13 145.44 90.13C143.76 93.13 141.39 95.56 138.33 97.42L150.75 120.91ZM123.84 74.47L117 74.47L117 86.17L123.84 86.17C125.76 86.23 127.26 85.75 128.34 84.73C129.48 83.71 130.05 82.27 130.05 80.41C130.05 78.55 129.48 77.11 128.34 76.09C127.26 75.01 125.76 74.47 123.84 74.47ZM195.75 88.51C201.15 91.57 203.85 96.22 203.85 102.46C203.85 108.22 201.96 112.75 198.18 116.05C194.46 119.35 189.03 121 181.89 121L155.25 121L155.25 58L180.27 58C187.35 58 192.75 59.53 196.47 62.59C200.19 65.65 202.05 70.03 202.05 75.73C202.05 81.19 199.95 85.45 195.75 88.51ZM179.19 73.48L173.25 73.48L173.25 81.94L180.18 81.85C182.76 81.49 184.05 80.11 184.05 77.71C184.05 76.33 183.57 75.28 182.61 74.56C181.65 73.84 180.51 73.48 179.19 73.48ZM173.25 105.52L180.81 105.52C182.25 105.52 183.45 105.1 184.41 104.26C185.37 103.42 185.85 102.34 185.85 101.02C185.85 98.5 184.5 97.03 181.8 96.61L173.25 96.52L173.25 105.52ZM265.5 121L246.15 121L243.99 112.9L225.81 112.9L223.65 121L204.3 121L224.37 58L245.43 58L265.5 121ZM234.9 79.15L229.68 98.5L240.12 98.5L234.9 79.15ZM303.3 86.8L303.3 58L321.3 58L321.3 121L306.9 121L287.1 92.2L287.1 121L269.1 121L269.1 58L283.5 58L303.3 86.8ZM63.18 230.44C56.34 230.44 50.64 229.03 46.08 226.21C41.52 223.33 38.46 219.46 36.9 214.6L52.29 205.69C54.39 211.03 58.17 213.7 63.63 213.7C67.71 213.7 69.75 212.62 69.75 210.46C69.75 209.86 69.6 209.32 69.3 208.84C69 208.36 68.43 207.94 67.59 207.58C66.75 207.22 66 206.95 65.34 206.77C64.74 206.53 63.66 206.2 62.1 205.78C60.54 205.36 59.37 205.03 58.59 204.79C46.05 201.01 39.78 194.26 39.78 184.54C39.78 178.78 41.85 174.01 45.99 170.23C50.19 166.45 55.68 164.56 62.46 164.56C67.8 164.56 72.57 165.82 76.77 168.34C81.03 170.86 84.15 174.49 86.13 179.23L71.19 187.96C69.45 183.52 66.57 181.3 62.55 181.3C60.99 181.3 59.79 181.63 58.95 182.29C58.17 182.89 57.78 183.67 57.78 184.63C57.78 185.95 58.47 186.97 59.85 187.69C61.29 188.41 64.02 189.34 68.04 190.48C71.04 191.38 73.5 192.25 75.42 193.09C77.34 193.87 79.35 195.01 81.45 196.51C83.55 197.95 85.11 199.84 86.13 202.18C87.21 204.46 87.75 207.16 87.75 210.28C87.75 216.7 85.53 221.68 81.09 225.22C76.71 228.7 70.74 230.44 63.18 230.44ZM92.7 166L117.9 166C124.44 166 129.9 168.07 134.28 172.21C138.66 176.29 140.85 181.75 140.85 188.59C140.85 195.43 138.66 200.92 134.28 205.06C129.9 209.14 124.44 211.18 117.9 211.18L110.7 211.18L110.7 229L92.7 229L92.7 166ZM110.7 193.72L117.9 193.72C119.28 193.72 120.45 193.27 121.41 192.37C122.37 191.41 122.85 190.15 122.85 188.59C122.85 187.03 122.37 185.8 121.41 184.9C120.45 183.94 119.28 183.46 117.9 183.46L110.7 183.46L110.7 193.72ZM201.51 220.99C195.09 227.29 187.2 230.44 177.84 230.44C168.48 230.44 160.56 227.29 154.08 220.99C147.66 214.63 144.45 206.8 144.45 197.5C144.45 188.2 147.66 180.4 154.08 174.1C160.56 167.74 168.48 164.56 177.84 164.56C187.2 164.56 195.09 167.74 201.51 174.1C207.99 180.4 211.23 188.2 211.23 197.5C211.23 206.8 207.99 214.63 201.51 220.99ZM166.77 208.48C169.71 211.36 173.4 212.8 177.84 212.8C182.28 212.8 185.94 211.36 188.82 208.48C191.76 205.54 193.23 201.88 193.23 197.5C193.23 193.12 191.76 189.49 188.82 186.61C185.94 183.67 182.28 182.2 177.84 182.2C173.4 182.2 169.71 183.67 166.77 186.61C163.89 189.49 162.45 193.12 162.45 197.5C162.45 201.88 163.89 205.54 166.77 208.48ZM269.73 228.91L250.47 228.91L240.48 209.11L235.98 209.11L235.98 228.91L217.98 228.91L217.98 165.91L243.18 165.91C250.08 165.91 255.78 167.95 260.28 172.03C264.78 176.05 267.03 181.39 267.03 188.05C267.03 191.77 266.16 195.13 264.42 198.13C262.74 201.13 260.37 203.56 257.31 205.42L269.73 228.91ZM242.82 182.47L235.98 182.47L235.98 194.17L242.82 194.17C244.74 194.23 246.24 193.75 247.32 192.73C248.46 191.71 249.03 190.27 249.03 188.41C249.03 186.55 248.46 185.11 247.32 184.09C246.24 183.01 244.74 182.47 242.82 182.47ZM269.28 166L316.98 166L316.98 183.46L302.13 183.46L302.13 229L284.13 229L284.13 183.46L269.28 183.46L269.28 166ZM343.26 230.44C336.42 230.44 330.72 229.03 326.16 226.21C321.6 223.33 318.54 219.46 316.98 214.6L332.37 205.69C334.47 211.03 338.25 213.7 343.71 213.7C347.79 213.7 349.83 212.62 349.83 210.46C349.83 209.86 349.68 209.32 349.38 208.84C349.08 208.36 348.51 207.94 347.67 207.58C346.83 207.22 346.08 206.95 345.42 206.77C344.82 206.53 343.74 206.2 342.18 205.78C340.62 205.36 339.45 205.03 338.67 204.79C326.13 201.01 319.86 194.26 319.86 184.54C319.86 178.78 321.93 174.01 326.07 170.23C330.27 166.45 335.76 164.56 342.54 164.56C347.88 164.56 352.65 165.82 356.85 168.34C361.11 170.86 364.23 174.49 366.21 179.23L351.27 187.96C349.53 183.52 346.65 181.3 342.63 181.3C341.07 181.3 339.87 181.63 339.03 182.29C338.25 182.89 337.86 183.67 337.86 184.63C337.86 185.95 338.55 186.97 339.93 187.69C341.37 188.41 344.1 189.34 348.12 190.48C351.12 191.38 353.58 192.25 355.5 193.09C357.42 193.87 359.43 195.01 361.53 196.51C363.63 197.95 365.19 199.84 366.21 202.18C367.29 204.46 367.83 207.16 367.83 210.28C367.83 216.7 365.61 221.68 361.17 225.22C356.79 228.7 350.82 230.44 343.26 230.44ZM71.19 338.44C61.71 338.44 53.85 335.29 47.61 328.99C41.37 322.69 38.25 314.86 38.25 305.5C38.25 296.14 41.37 288.31 47.61 282.01C53.85 275.71 61.71 272.56 71.19 272.56C77.01 272.56 82.38 273.94 87.3 276.7C92.22 279.46 96.06 283.18 98.82 287.86L83.16 296.86C82.14 294.82 80.55 293.2 78.39 292C76.23 290.8 73.83 290.2 71.19 290.2C66.75 290.2 63.15 291.64 60.39 294.52C57.63 297.4 56.25 301.06 56.25 305.5C56.25 309.94 57.63 313.6 60.39 316.48C63.15 319.36 66.75 320.8 71.19 320.8C73.89 320.8 76.29 320.2 78.39 319C80.55 317.8 82.14 316.15 83.16 314.05L98.82 323.05C96.06 327.79 92.22 331.54 87.3 334.3C82.38 337.06 77.01 338.44 71.19 338.44ZM121.32 274L121.32 319.54L142.02 319.54L142.02 337L103.32 337L103.32 274L121.32 274ZM190.26 332.23C185.52 336.37 179.34 338.44 171.72 338.44C164.1 338.44 157.92 336.37 153.18 332.23C148.44 328.09 146.07 322.66 146.07 315.94L146.07 274L164.07 274L164.07 313.96C164.07 318.64 166.62 320.98 171.72 320.98C176.82 320.98 179.37 318.64 179.37 313.96L179.37 274L197.37 274L197.37 315.94C197.37 322.66 195 328.09 190.26 332.23ZM245.97 304.51C251.37 307.57 254.07 312.22 254.07 318.46C254.07 324.22 252.18 328.75 248.4 332.05C244.68 335.35 239.25 337 232.11 337L205.47 337L205.47 274L230.49 274C237.57 274 242.97 275.53 246.69 278.59C250.41 281.65 252.27 286.03 252.27 291.73C252.27 297.19 250.17 301.45 245.97 304.51ZM229.41 289.48L223.47 289.48L223.47 297.94L230.4 297.85C232.98 297.49 234.27 296.11 234.27 293.71C234.27 292.33 233.79 291.28 232.83 290.56C231.87 289.84 230.73 289.48 229.41 289.48ZM223.47 321.52L231.03 321.52C232.47 321.52 233.67 321.1 234.63 320.26C235.59 319.42 236.07 318.34 236.07 317.02C236.07 314.5 234.72 313.03 232.02 312.61L223.47 312.52L223.47 321.52Z" />
</svg>